<svg width="34" height="29" viewBox="0 0 34 29" fill="none" xmlns="http://www.w3.org/2000/svg">
<path d="M17.0077 6.10526C21.2751 6.10526 24.7385 9.52421 24.7385 13.7368C24.7385 14.7289 24.5375 15.66 24.1819 16.53L28.6967 20.9868C31.0314 19.0637 32.8713 16.5758 34 13.7368C31.3251 7.03632 24.7231 2.28947 16.9923 2.28947C14.8276 2.28947 12.7558 2.67105 10.8386 3.35789L14.1783 6.65474C15.0596 6.30368 16.0027 6.10526 17.0077 6.10526ZM1.54616 1.93842L5.0714 5.41842L5.78263 6.12053C3.21601 8.08947 1.206 10.7147 0 13.7368C2.67485 20.4374 9.27694 25.1842 17.0077 25.1842C19.4043 25.1842 21.6926 24.7263 23.7799 23.9021L24.4293 24.5432L28.9595 29L30.9231 27.0616L3.50978 0L1.54616 1.93842ZM10.0964 10.3789L12.493 12.7447C12.4156 13.0653 12.3693 13.4011 12.3693 13.7368C12.3693 16.2705 14.4411 18.3158 17.0077 18.3158C17.3479 18.3158 17.688 18.27 18.0127 18.1937L20.4093 20.5595C19.3734 21.0632 18.2292 21.3684 17.0077 21.3684C12.7403 21.3684 9.27694 17.9495 9.27694 13.7368C9.27694 12.5311 9.58618 11.4016 10.0964 10.3789ZM16.7603 9.18842L21.6307 13.9963L21.6617 13.7521C21.6617 11.2184 19.5898 9.17316 17.0232 9.17316L16.7603 9.18842Z" fill="#5DB075"/>
</svg>
