<?xml version="1.0" encoding="UTF-8"?>
<svg id="Capa_2" data-name="Capa 2" xmlns="http://www.w3.org/2000/svg" viewBox="0 0 24 25">
  <defs>
    <style>
      .cls-1 {
        fill: #c7c7c7;
      }

      .cls-2 {
        fill: #686868;
      }
    </style>
  </defs>
  <g id="Capa_1-2" data-name="Capa 1">
    <g>
      <rect class="cls-1" x=".5" y=".5" width="23" height="24" rx="4.5" ry="4.5"/>
      <path class="cls-2" d="M19,1c2.21,0,4,1.79,4,4v15c0,2.21-1.79,4-4,4H5c-2.21,0-4-1.79-4-4V5C1,2.79,2.79,1,5,1h14m0-1H5C2.24,0,0,2.24,0,5v15c0,2.76,2.24,5,5,5h14c2.76,0,5-2.24,5-5V5c0-2.76-2.24-5-5-5h0Z"/>
    </g>
    <path class="cls-2" d="M2.94,16.72l2.82,2.5c.92,.81,1.9,1.95,3.27,1.52,1.07-.33,1.76-1.55,2.39-2.4s1.27-1.77,1.89-2.66c2.27-3.3,4.53-6.84,7.95-9.07,1.61-1.05,.11-3.65-1.51-2.59-2.65,1.73-4.7,4.09-6.56,6.62-.9,1.23-1.75,2.49-2.62,3.74-.44,.64-.89,1.29-1.35,1.92-.23,.32-.46,.63-.7,.94-.08,.1-.16,.21-.24,.31-.09,.11-.37,.36-.27,.34h.8c-.13-.03-.51-.43-.69-.59l-1.06-.94-2-1.77c-1.44-1.28-3.57,.84-2.12,2.12h0Z"/>
  </g>
</svg>